<svg width="655" height="414" viewBox="0 0 655 414" fill="none" xmlns="http://www.w3.org/2000/svg">
<path d="M564.755 290H90.2454C89.9151 290 89.5984 289.895 89.3648 289.707C89.1312 289.52 89 289.265 89 289C89 288.735 89.1312 288.48 89.3648 288.293C89.5984 288.105 89.9151 288 90.2454 288H564.755C565.085 288 565.402 288.105 565.635 288.293C565.869 288.48 566 288.735 566 289C566 289.265 565.869 289.52 565.635 289.707C565.402 289.895 565.085 290 564.755 290Z" fill="#3F3D56"/>
<path d="M337 129C355.778 129 371 114.002 371 95.5C371 76.9985 355.778 62 337 62C318.222 62 303 76.9985 303 95.5C303 114.002 318.222 129 337 129Z" fill="#2F2E41"/>
<path d="M304.895 309L304 293.719L362.678 283L364 305.555L304.895 309Z" fill="#FFB8B8"/>
<path d="M307.792 282.899L309.51 312.005L291.001 313.076L288.201 265.645C290.631 265.504 293.066 265.839 295.366 266.63C297.666 267.421 299.786 268.652 301.605 270.255C303.425 271.857 304.907 273.798 305.969 275.968C307.03 278.137 307.65 280.492 307.792 282.899Z" fill="#2F2E41"/>
<path d="M330 309.25L320.435 321L271 289.341L285.116 272L330 309.25Z" fill="#FFB8B8"/>
<path d="M310.36 326.162L329.058 303.639L343.381 315.295L312.91 352C311.029 350.469 309.471 348.587 308.325 346.46C307.179 344.333 306.467 342.003 306.23 339.604C305.993 337.205 306.236 334.783 306.945 332.477C307.653 330.17 308.814 328.025 310.36 326.162V326.162Z" fill="#2F2E41"/>
<path d="M302.725 254.831L296.108 285.143C295.956 285.841 295.964 286.563 296.133 287.257C296.302 287.951 296.627 288.601 297.084 289.159C297.542 289.717 298.121 290.169 298.78 290.484C299.439 290.799 300.161 290.968 300.895 290.98L365.944 291.999C366.678 292.011 367.404 291.865 368.073 291.571C368.741 291.278 369.334 290.845 369.81 290.303C370.286 289.76 370.633 289.123 370.825 288.435C371.018 287.747 371.052 287.027 370.924 286.325L365.234 254.994C365.031 253.875 364.429 252.861 363.533 252.131C362.637 251.4 361.504 251 360.335 251H307.592C306.452 251 305.346 251.381 304.46 252.078C303.574 252.776 302.962 253.748 302.725 254.831V254.831Z" fill="#2F2E41"/>
<path d="M313.324 265.572C313.324 265.572 249.914 226.213 237.481 247.122C231.265 257.577 234.373 267.724 239.035 275.257C243.362 282.117 249.573 287.616 256.942 291.113L308.35 316L327 296.321L314.567 285.251L313.324 265.572Z" fill="#2F2E41"/>
<path d="M345.526 259.224C345.526 259.224 428.151 235.621 411.877 280.342C395.602 325.063 334.259 307.671 334.259 307.671L328 289.038L349.282 274.131L345.526 259.224Z" fill="#2F2E41"/>
<path d="M337.5 133C354.345 133 368 119.569 368 103C368 86.4314 354.345 73 337.5 73C320.655 73 307 86.4314 307 103C307 119.569 320.655 133 337.5 133Z" fill="#FFB8B8"/>
<path d="M339.108 264C326.329 263.809 313.615 262.157 301.222 259.077L300.856 258.978L283.695 181.114C282.151 174.272 283.2 167.109 286.645 160.979C290.09 154.848 295.692 150.173 302.392 147.838C323.09 140.513 345.649 140.069 366.626 146.573H366.627C373.665 148.81 379.59 153.583 383.219 159.939C386.848 166.295 387.914 173.767 386.204 180.864L367.036 258.913L366.766 259.039C358.8 262.761 348.839 264 339.108 264Z" fill="#CCCCCC"/>
<path d="M315.779 270.3C316.405 268.601 317.405 267.056 318.708 265.775C320.012 264.494 321.587 263.508 323.323 262.886C325.059 262.264 326.913 262.021 328.755 262.175C330.598 262.328 332.383 262.874 333.986 263.775L367.929 235L371 257.613L338.296 281.471C336.569 284 333.952 285.823 330.941 286.594C327.929 287.365 324.733 287.03 321.957 285.653C319.182 284.276 317.02 281.953 315.881 279.123C314.742 276.294 314.706 273.154 315.779 270.3V270.3Z" fill="#FFB8B8"/>
<path d="M347.681 277C347.134 277 346.591 276.92 346.067 276.764C345.217 276.519 344.439 276.074 343.797 275.468C343.156 274.862 342.67 274.112 342.38 273.28L338.325 261.864C337.945 260.809 337.897 259.664 338.187 258.581C338.476 257.498 339.09 256.528 339.946 255.799L385.716 228.492L367.674 148.501L368.132 148.391C368.319 148.346 386.805 144.164 394.38 164.239C399.685 178.299 419.315 208.869 417.93 229.527C417.667 233.659 416.01 237.583 413.227 240.664C410.444 243.746 406.697 245.805 402.592 246.509L351.072 275.844C350.101 276.592 348.909 276.998 347.681 277Z" fill="#CCCCCC"/>
<path d="M353.235 267.3C352.62 265.601 351.638 264.056 350.358 262.775C349.078 261.494 347.531 260.508 345.826 259.886C344.121 259.264 342.3 259.021 340.49 259.175C338.681 259.328 336.927 259.874 335.353 260.775L302.016 232L299 254.613L331.12 278.471C332.816 281 335.387 282.823 338.344 283.594C341.302 284.365 344.441 284.03 347.167 282.653C349.893 281.276 352.016 278.953 353.135 276.123C354.253 273.294 354.289 270.154 353.235 267.3V267.3Z" fill="#FFB8B8"/>
<path d="M324.287 277C323.055 276.998 321.859 276.592 320.885 275.844L265.448 248.984C261.329 248.279 257.57 246.22 254.778 243.139C251.986 240.057 250.323 236.134 250.059 232.002C248.67 211.344 272.112 178.299 277.434 164.239C285.034 144.165 303.581 148.345 303.768 148.392L304.229 148.502L282.38 230.966L332.048 255.799C332.907 256.528 333.522 257.498 333.813 258.581C334.103 259.664 334.055 260.809 333.674 261.864L329.606 273.28C329.315 274.112 328.827 274.862 328.183 275.468C327.54 276.074 326.759 276.519 325.906 276.764C325.381 276.92 324.835 277 324.287 277V277Z" fill="#CCCCCC"/>
<path d="M390.301 289H279.699C277.393 288.997 275.182 288.083 273.551 286.459C271.92 284.834 271.003 282.631 271 280.333V219.667C271.003 217.369 271.92 215.166 273.551 213.541C275.182 211.917 277.393 211.003 279.699 211H390.301C392.607 211.003 394.818 211.917 396.449 213.541C398.08 215.166 398.997 217.369 399 219.667V280.333C398.997 282.631 398.08 284.834 396.449 286.459C394.818 288.083 392.607 288.997 390.301 289V289Z" fill="#F50057"/>
<path d="M335.5 257C339.642 257 343 253.866 343 250C343 246.134 339.642 243 335.5 243C331.358 243 328 246.134 328 250C328 253.866 331.358 257 335.5 257Z" fill="white"/>
<path d="M306.54 102C304.728 97.3568 307.701 91.8234 312.112 89.5742C316.523 87.325 321.846 87.7527 326.564 89.2351C330.529 90.4809 334.245 92.4115 338.113 93.9364C341.927 95.6434 346.092 96.3928 350.255 96.1206C354.381 95.6499 358.488 93.3128 360.176 89.4808C361.926 85.5087 360.736 80.6614 358.041 77.2716C355.173 73.9944 351.462 71.5849 347.32 70.3113C338.222 67.0738 327.714 66.9792 319.268 71.6851C310.822 76.3911 305.082 86.4113 306.828 95.9935" fill="#2F2E41"/>
<path d="M129.874 276.122C131.428 259.718 135.719 243.675 142.577 228.633C144.488 224.448 146.592 220.354 148.888 216.353C149.003 216.143 149.031 215.898 148.965 215.669C148.9 215.44 148.746 215.245 148.537 215.125C148.327 215.005 148.078 214.97 147.843 215.026C147.607 215.082 147.403 215.226 147.274 215.428C138.924 230.002 133.074 245.823 129.959 262.257C129.092 266.846 128.441 271.468 128.005 276.122C127.894 277.296 129.764 277.289 129.874 276.122V276.122Z" fill="#E6E6E6"/>
<path d="M153 219C159.627 219 165 213.851 165 207.5C165 201.149 159.627 196 153 196C146.373 196 141 201.149 141 207.5C141 213.851 146.373 219 153 219Z" fill="#F50057"/>
<path d="M131.16 276.42C132.122 265.571 134.779 254.962 139.024 245.016C140.207 242.248 141.509 239.54 142.931 236.894C143.002 236.756 143.019 236.594 142.978 236.443C142.938 236.291 142.843 236.162 142.713 236.083C142.584 236.004 142.43 235.98 142.284 236.017C142.138 236.055 142.012 236.15 141.931 236.283C136.762 245.921 133.141 256.383 131.213 267.25C130.676 270.285 130.273 273.342 130.003 276.42C129.934 277.196 131.092 277.191 131.16 276.42H131.16Z" fill="#E6E6E6"/>
<path d="M146 239C150.418 239 154 235.642 154 231.5C154 227.358 150.418 224 146 224C141.582 224 138 227.358 138 231.5C138 235.642 141.582 239 146 239Z" fill="#F50057"/>
<path d="M128.902 275.032C123.356 266.144 119.27 256.381 116.805 246.132C116.121 243.279 115.564 240.398 115.136 237.49C115.112 237.339 115.031 237.205 114.911 237.115C114.792 237.024 114.643 236.985 114.496 237.005C114.349 237.026 114.215 237.104 114.123 237.223C114.031 237.343 113.988 237.494 114.003 237.646C115.569 248.235 118.818 258.488 123.622 267.994C124.965 270.648 126.425 273.234 128.001 275.754C128.398 276.39 129.297 275.664 128.902 275.032V275.032Z" fill="#E6E6E6"/>
<path d="M113.5 239C117.642 239 121 235.642 121 231.5C121 227.358 117.642 224 113.5 224C109.358 224 106 227.358 106 231.5C106 235.642 109.358 239 113.5 239Z" fill="#F50057"/>
<path d="M481 299.337C481 307.355 474.284 311 466 311C457.716 311 451 307.355 451 299.337C451 291.319 454.333 281.963 466 285.19C477.667 280.35 481 291.319 481 299.337Z" fill="#FF6584"/>
<path d="M464.667 289C464.103 289.001 463.558 288.794 463.134 288.418C462.71 288.042 462.436 287.523 462.364 286.957C461.884 282.917 459.237 275.004 458.121 271.79L458.121 271.789C458.008 271.47 457.973 271.127 458.02 270.791C458.067 270.455 458.194 270.136 458.389 269.86C458.576 269.614 458.813 269.41 459.083 269.263C459.354 269.116 459.652 269.028 459.958 269.006C460.265 268.983 460.573 269.027 460.861 269.133C461.15 269.24 461.413 269.407 461.633 269.624C461.829 269.832 461.982 270.079 462.08 270.349C462.178 270.62 462.22 270.908 462.203 271.195C461.985 275.32 464.959 281.986 466.752 285.594C466.921 285.934 467.006 286.31 467 286.691C466.993 287.071 466.895 287.445 466.714 287.779C466.533 288.112 466.275 288.397 465.961 288.607C465.647 288.818 465.288 288.948 464.913 288.987C464.831 288.996 464.749 289 464.667 289V289Z" fill="#3F3D56"/>
<path d="M475.748 279.527C480.697 275.262 476.814 266.536 470.62 268.211C469.787 268.42 469.018 268.852 468.389 269.464C464.589 273.242 464 282.91 464 282.91C464 282.91 470.71 283.867 475.748 279.527Z" fill="#3F3D56"/>
</svg>
