<svg xmlns="http://www.w3.org/2000/svg" viewBox="0 0 1440 320"><path fill="#ffffff" fill-opacity="1" d="M0,256L18.5,266.7C36.9,277,74,299,111,293.3C147.7,288,185,256,222,245.3C258.5,235,295,245,332,250.7C369.2,256,406,256,443,245.3C480,235,517,213,554,197.3C590.8,181,628,171,665,160C701.5,149,738,139,775,154.7C812.3,171,849,213,886,234.7C923.1,256,960,256,997,250.7C1033.8,245,1071,235,1108,208C1144.6,181,1182,139,1218,128C1255.4,117,1292,139,1329,160C1366.2,181,1403,203,1422,213.3L1440,224L1440,320L1421.5,320C1403.1,320,1366,320,1329,320C1292.3,320,1255,320,1218,320C1181.5,320,1145,320,1108,320C1070.8,320,1034,320,997,320C960,320,923,320,886,320C849.2,320,812,320,775,320C738.5,320,702,320,665,320C627.7,320,591,320,554,320C516.9,320,480,320,443,320C406.2,320,369,320,332,320C295.4,320,258,320,222,320C184.6,320,148,320,111,320C73.8,320,37,320,18,320L0,320Z"></path></svg>